<?xml version="1.0" encoding="UTF-8" standalone="no"?>


<svg

   xmlns:svg="http://www.w3.org/2000/svg"
   xmlns="http://www.w3.org/2000/svg"
  
   width="75"
   height="260"
   viewBox="0 0 75.000001 260"
   id="svg3579"
   version="1.1"
>
<defs>
    <filter id="f2" x="0" y="0" width="200%" height="200%">
      <feOffset result="offOut" in="SourceGraphic" dx="0" dy="0" />
      <feGaussianBlur result="blurOut" in="offOut" stdDeviation="3" />
      <feBlend in="SourceGraphic" in2="blurOut" mode="normal" />
    </filter>
  </defs>
  <g

     id="layer1"
     transform="translate(0,-792.36214)">
    <path
       id="path3547"
       d="m 70.742965,1032.5198 c 0,0 -23.709002,17.094 -33.000002,17.094 -9.291,0 -32.9999999,-17.094 -32.9999999,-17.094 0,0 9.4999999,-82.92502 9.4999999,-110.39902 0,-25.776 -9.4999999,-103.351 -9.4999999,-103.351 0,0 24.7499999,-25.125 32.9999999,-25.125 8.25,0 33.000002,24.938 33.000002,24.938 0,0 -8.500002,76.943 -8.500002,103.568 0,26.625 8.500002,110.36902 8.500002,110.36902 z"
       style="fill:#ce5ad1"  filter="url(#f2)" />
    <text
       y="-26.605265"
       x="868.3396"
       id="text3551"
       font-size="35.5629"
       transform="matrix(0,1,-1,0,0,0)"
       style="font-size:35.56290054px;font-family:Sprinklescolors;fill:#3d042e">Talleres</text>
  </g>
</svg>
